# xmcd
#
# Track frame offsets:
# 150
# 12384
# 26752
# 41864
# 54277
# 70439
# 82334
# 94340
# 108163
# 120391
# 135353
# 148008
# 161074
# 173570
# 182972
#
# Disc length: 2602 seconds
#
#
# Revision: 0
# Processed by: cddbd v1.5.2PL0 Copyright (c) Steve Scherf et al.
# Submitted via: FreeRIP 2.951 
#
DISCID=d10a280f
DTITLE=Miramar and Mirai - A Viola E O Cantador
DYEAR=2006
DGENRE=Sertanejo
TTITLE0=Toca Telefone
TTITLE1=Tema de Novela
TTITLE2=Ainda Apaixonado
TTITLE3=Eu Achei Bom
TTITLE4=Amor Inocente
TTITLE5=Tá Doidinha Pra Me Dar
TTITLE6=O Ponto E A Medida
TTITLE7=Tempero Cheiroso
TTITLE8=Segura Peão
TTITLE9=Menino do Farol
TTITLE10=Amigo Travesseiro
TTITLE11=Desprezo
TTITLE12=Bota Esse Cara Pra Correr
TTITLE13=Paixão De Mulher
TTITLE14=É Ele
EXTD=ramongabriel@walla.com
EXTT0=
EXTT1=
EXTT2=
EXTT3=
EXTT4=
EXTT5=
EXTT6=
EXTT7=
EXTT8=
EXTT9=
EXTT10=
EXTT11=
EXTT12=
EXTT13=
EXTT14=
PLAYORDER=
